<?xml version="1.0" encoding="UTF-8" standalone="no"?>
<!-- Created with Inkscape (http://www.inkscape.org/) -->

<svg
   width="51.447784mm"
   height="12.153517mm"
   viewBox="0 0 51.447785 12.153516"
   version="1.1"
   id="svg5"
   sodipodi:docname="logo.svg"
   inkscape:version="1.1.1 (c3084ef, 2021-09-22)"
   xmlns:inkscape="http://www.inkscape.org/namespaces/inkscape"
   xmlns:sodipodi="http://sodipodi.sourceforge.net/DTD/sodipodi-0.dtd"
   xmlns="http://www.w3.org/2000/svg"
   xmlns:svg="http://www.w3.org/2000/svg">
  <sodipodi:namedview
     id="namedview7"
     pagecolor="#ffffff"
     bordercolor="#666666"
     borderopacity="1.0"
     inkscape:pageshadow="2"
     inkscape:pageopacity="0.0"
     inkscape:pagecheckerboard="0"
     inkscape:document-units="mm"
     showgrid="false"
     fit-margin-top="0"
     fit-margin-left="0"
     fit-margin-right="0"
     fit-margin-bottom="0"
     inkscape:zoom="3.7644301"
     inkscape:cx="70.927071"
     inkscape:cy="10.758601"
     inkscape:window-width="1440"
     inkscape:window-height="773"
     inkscape:window-x="0"
     inkscape:window-y="25"
     inkscape:window-maximized="0"
     inkscape:current-layer="text1272">
    <inkscape:grid
       type="xygrid"
       id="grid824"
       originx="-59.819394"
       originy="-99.121683" />
  </sodipodi:namedview>
  <defs
     id="defs2" />
  <g
     inkscape:groupmode="layer"
     id="layer4"
     inkscape:label="Background"
     transform="translate(0.15000501,0.14997701)" />
  <g
     inkscape:label="Layer 1"
     inkscape:groupmode="layer"
     id="layer1"
     transform="translate(-59.819394,-99.12169)"
     style="display:none">
    <g
       aria-label="Eleeos"
       id="text1708"
       style="font-size:16.9333px;line-height:1.25;font-family:Quicksand;-inkscape-font-specification:'Quicksand, Normal';fill:#b9b9b9;stroke-width:0.264583">
      <g
         id="g22152"
         transform="translate(-1.0377236,0.49800717)"
         style="stroke:#b2bfbe;stroke-opacity:1">
        <path
           fill="#ff0066"
           d="m 93.927084,100.54167 c 0.754246,1.82277 -0.339214,4.23641 -0.942801,6.7003 -0.616011,2.46393 -0.741704,4.97811 -2.011383,5.85811 -1.257106,0.89254 -3.65817,0.15087 -5.179264,-1.08109 -1.533637,-1.24454 -2.187335,-2.97933 -3.255888,-5.29242 -1.081095,-2.32563 -2.564473,-5.22955 -1.734793,-7.077442 0.842252,-1.84794 4.010134,-2.62733 6.888913,-2.40109 2.87878,0.2263 5.480969,1.47081 6.235216,3.293632 z"
           id="path16205"
           style="fill:none;stroke:#b2bfbe;stroke-width:0.09;stroke-miterlimit:4;stroke-dasharray:none;stroke-opacity:1" />
        <path
           fill="#ff0066"
           d="m 90.013652,99.566188 c 1.822208,0.755572 2.75572,3.235472 4.071162,5.404502 1.306686,2.17784 2.995597,4.0445 2.720043,5.56456 -0.257657,1.52003 -2.480046,2.69339 -4.426734,2.89786 -1.964466,0.20441 -3.653378,-0.56004 -6.044561,-1.44004 -2.408932,-0.88003 -5.511231,-1.8845 -6.231192,-3.77783 -0.711146,-1.90225 0.977796,-4.69341 3.173354,-6.56904 2.195618,-1.875572 4.915662,-2.835592 6.737928,-2.080012 z"
           id="path16205-5"
           style="font-size:16.9333px;line-height:1.25;font-family:Quicksand;-inkscape-font-specification:'Quicksand, Normal';fill:none;stroke:#b2bfbe;stroke-width:0.09;stroke-miterlimit:4;stroke-dasharray:none;stroke-opacity:1" />
        <path
           fill="#ff0066"
           d="m 84.720143,100.40989 c 1.822769,-0.754222 4.236435,0.33924 6.70033,0.9428 2.463924,0.61601 4.978079,0.7417 5.858077,2.01138 0.89266,1.25702 0.150867,3.65817 -1.081066,5.1793 -1.244534,1.5336 -2.979327,2.1873 -5.292415,3.25588 -2.325629,1.0811 -5.229583,2.56448 -7.077438,1.73477 -1.847973,-0.84223 -2.627334,-4.01014 -2.401122,-6.88892 0.2263,-2.87875 1.470835,-5.48094 3.293634,-6.23521 z"
           id="path16205-5-5"
           style="font-size:16.9333px;line-height:1.25;font-family:Quicksand;-inkscape-font-specification:'Quicksand, Normal';fill:none;stroke:#b2bfbe;stroke-width:0.09;stroke-miterlimit:4;stroke-dasharray:none;stroke-opacity:1" />
        <path
           fill="#ff0066"
           d="m 81.308271,105.67044 c 0.755577,-1.8222 3.235505,-2.75572 5.4045,-4.07119 2.177839,-1.30665 4.044508,-2.995572 5.564567,-2.720012 1.52003,0.25766 2.69339,2.480042 2.897889,4.426732 0.20441,1.96447 -0.560042,3.65338 -1.44004,6.04456 -0.880028,2.40894 -1.884536,5.51123 -3.777858,6.2312 -1.902256,0.71117 -4.693384,-0.9778 -6.569046,-3.17336 -1.875573,-2.19562 -2.83556,-4.91566 -2.080012,-6.73793 z"
           id="path16205-5-5-8"
           style="font-size:16.9333px;line-height:1.25;font-family:Quicksand;-inkscape-font-specification:'Quicksand, Normal';fill:none;stroke:#b2bfbe;stroke-width:0.09;stroke-miterlimit:4;stroke-dasharray:none;stroke-opacity:1" />
      </g>
    </g>
  </g>
  <g
     inkscape:groupmode="layer"
     id="layer3"
     inkscape:label="Layer 2"
     transform="translate(0.15000501,0.14997701)">
    <g
       aria-label="Orange"
       transform="scale(1.0170598,0.98322636)"
       id="text1272"
       style="font-size:9.43125px;line-height:1.25;font-family:'aaaiight! fat';-inkscape-font-specification:'aaaiight! fat, Normal';fill:#fb6400;stroke-width:0.235781">
      <path
         d="M 1.980993,4.0708998 Q 2.1651971,3.7945936 2.4415032,3.5367079 2.7178094,3.2696119 3.0954277,3.002516 h -0.00921 Q 3.4362053,2.7538405 3.8506645,2.6617384 4.2651237,2.5696364 4.7808952,2.5696364 v -0.073682 q 0.5341919,0 1.0315429,0.1473633 0.4973511,0.1381531 0.9210205,0.405249 0.4328796,0.2578858 0.7828674,0.6355042 0.3499878,0.3684081 0.5986633,0.8289184 0.036841,-0.01842 0.055261,-0.01842 0.055261,0 0.1105225,0.1197326 0.064471,0.1197327 0.1105225,0.2947266 0.055261,0.1657837 0.082892,0.3684082 0.036841,0.1934143 0.036841,0.3499877 0,0.6078736 -0.359198,1.1512756 Q 7.8018424,7.322102 7.2492301,7.727351 6.705828,8.1233898 6.0519035,8.3536449 5.4071891,8.5931103 4.817736,8.5931103 q -0.6631347,0 -1.3446899,-0.313147 h 0.00921 Q 3.0677971,8.0957592 2.7085992,7.8102429 2.3494012,7.5247265 2.0823052,7.1655285 1.8244195,6.7971203 1.6770562,6.3734509 1.5296929,5.9497815 1.5296929,5.4892713 q 0,-0.6907654 0.4513001,-1.4183715 z m 2.7722716,3.0669981 q 0.1289429,0.036841 0.2578857,0.055261 0.1381531,0.00921 0.2578858,0.00921 0.3407775,0 0.5618224,-0.1565735 Q 6.0519035,6.8800122 6.1716361,6.6497571 6.2913688,6.4102917 6.3374198,6.152406 6.3834708,5.8853101 6.3834708,5.6734754 6.3834708,5.2037549 6.300579,4.98271 6.2268973,4.7616651 6.1071647,4.6511426 5.9966422,4.53141 5.8584892,4.4577283 5.7295463,4.3748365 5.6190238,4.1998426 5.5729728,4.126161 5.536132,4.0893202 q -0.036841,-0.046051 -0.073682,-0.064472 -0.092102,0.092102 -0.2026245,0.092102 -0.018421,0 -0.027631,0 -0.00921,-0.00921 -0.027631,-0.00921 -0.036841,0 -0.1197326,0.082892 -0.00921,-0.055261 -0.036841,-0.1473633 -0.027631,-0.1013122 -0.073682,-0.2578857 l -0.00921,-0.027631 q 0,0.00921 -0.046051,0.036841 -0.036841,0.01842 -0.092102,0.046051 -0.055261,0.01842 -0.1105224,0.036841 -0.055261,0.01842 -0.082892,0.01842 -0.00921,-0.00921 -0.00921,-0.00921 l 0.00921,0.00921 q -0.01842,-0.01842 -0.036841,-0.046051 -0.00921,-0.036841 -0.027631,-0.064471 v 0.00921 Q 4.4677482,3.6564405 4.2559135,3.6564405 4.0993401,3.6564405 3.961187,3.766963 3.8230339,3.8682752 3.7125115,4.0616895 3.6111992,4.2551038 3.5467278,4.53141 q -0.064472,0.2670959 -0.064472,0.5986633 0,0.3776184 0.1105225,0.7552368 0.1105225,0.3776184 0.3223572,0.7183959 h -0.00921 q 0.2763061,0.4052491 0.8473388,0.5341919 z"
         id="path2971" />
      <path
         d="m 8.9715383,2.7446303 q -0.027631,0.01842 -0.064471,0.01842 -0.027631,0 -0.073682,0.00921 0.036841,0 0.064471,0 0.027631,-0.00921 0.073682,-0.00921 z m 0,-0.082892 q 0.064471,0.027631 0.064471,0.036841 0,0.027631 -0.064471,0.046051 z M 9.6162527,8.4273266 Q 9.1741628,7.5615673 8.8610159,6.5484448 8.5478689,5.5353223 8.2439322,4.3564161 8.1057791,3.8314344 8.1057791,3.3432936 q 0,-0.2578858 0.1289429,-0.3315674 0.1197326,-0.073682 0.2486755,-0.073682 0.092102,0 0.1565735,0.036841 0,-0.055261 0.036841,-0.082892 0.046051,-0.027631 0.1013122,-0.036841 0.055261,-0.01842 0.1013123,-0.01842 0.046051,0 0.064471,0 h 0.027631 v -0.073682 q 0.1013123,-0.00921 0.2210449,-0.01842 0.1289429,-0.00921 0.2578858,-0.027631 v 0.1105224 q 0.036841,0 0.138153,0.00921 0.1105225,0 0.221045,0 0.1105224,0 0.202624,0.00921 0.0921,0 0.110523,0 -0.01842,0.267096 -0.02763,0.4420899 -0.0092,0.1657836 -0.0092,0.2670959 0,0.2763061 0.03684,0.3776184 0.03684,0.1013122 0.128943,0.1013122 -0.03684,-0.027631 -0.03684,-0.064471 0,-0.00921 0.01842,-0.046051 h 0.0921 q 0.248676,-0.3039368 0.626294,-0.5249817 0.377619,-0.2302551 0.819709,-0.3684082 0.442089,-0.1473633 0.91181,-0.2118347 0.47893,-0.073682 0.91181,-0.073682 0.07368,0 0.138153,0.00921 0.07368,0 0.147363,0 0,0.027631 0,0.1197326 0,0.082892 -0.0092,0.1934143 -0.0092,0.1105225 -0.03684,0.2302552 -0.01842,0.1197326 -0.05526,0.2118347 v -0.027631 q -0.02763,0.092102 -0.06447,0.1565735 -0.02763,0.064472 -0.193415,0.064472 -0.48814,0 -0.838128,0.1565734 -0.349988,0.1565735 -0.589453,0.405249 -0.239466,0.2486756 -0.386829,0.5618225 -0.138153,0.3039368 -0.211835,0.6078735 -0.07368,0.2947266 -0.101312,0.5526123 -0.01842,0.2578858 -0.01842,0.405249 0,0.1842041 0.0092,0.4328797 0.0092,0.2394653 0.02763,0.5341918 h 0.156573 Q 11.485924,7.7549816 11.458294,8.0128674 10.988573,8.1326 10.610955,8.2891735 10.233336,8.4549572 9.8004568,8.5194286 Z"
         id="path2973" />
      <path
         d="m 14.976592,6.8155408 q 0,-0.018421 0.06447,-0.055261 0.06447,-0.046051 0.156573,-0.092102 0.211835,-0.082892 0.46051,-0.3223572 0.257886,-0.2486755 0.478931,-0.5434021 0.221045,-0.2947265 0.368408,-0.5802429 0.147364,-0.2855163 0.147364,-0.4420898 0,-0.073682 -0.03684,-0.1105224 0,-0.1289429 0,-0.2118348 0.0092,-0.082892 0.02763,-0.082892 0,-0.046051 -0.06447,-0.046051 -0.05526,0 -0.119733,0 -0.331567,0 -0.727606,0.1105224 -0.396039,0.1105225 -0.746027,0.3039368 -0.349987,0.1934143 -0.598663,0.4697204 -0.239465,0.267096 -0.276306,0.5894531 v -0.00921 q 0,0.2394654 0.193414,0.4881409 0.193415,0.2394653 0.663135,0.5341919 z m 3.905127,-3.0854186 q -0.04605,0.046051 -0.110522,0.138153 0.07368,0.3776184 0.138153,0.7736572 0.07368,0.3960388 0.147363,0.7828674 0.07368,0.3776184 0.174994,0.7460266 0.101312,0.359198 0.248675,0.6631348 l 0.02763,0.055261 -0.0092,-0.00921 q 0.03684,0.064471 0.03684,0.1473633 0,0.1289428 -0.119733,0.2670959 -0.110523,0.1381531 -0.257886,0.2578857 -0.147363,0.1105225 -0.285516,0.1842041 -0.128943,0.073682 -0.165784,0.082892 v 0.1657837 h -0.0921 v 0.1289428 q -0.221045,-0.055261 -0.303937,-0.082892 -0.07368,-0.027631 -0.119732,-0.046051 -0.03684,-0.018421 -0.0921,-0.027631 -0.05526,-0.01842 -0.221045,-0.046051 V 7.7181408 Q 17.794915,7.4970959 17.758074,7.322102 17.730443,7.1378979 17.702813,6.9813244 17.675182,6.8155408 17.629131,6.6589673 17.59229,6.5023938 17.490978,6.3273999 q -0.05526,0.064471 -0.138153,0.1657837 -0.08289,0.1013122 -0.165784,0.2118347 -0.07368,0.1105225 -0.138153,0.2118347 -0.06447,0.092102 -0.08289,0.1473633 H 16.864684 Q 16.284441,7.7549816 15.602886,8.1326 q -0.681555,0.3684082 -1.335479,0.3684082 -0.331568,0 -0.672345,-0.1473633 -0.340778,-0.138153 -0.617084,-0.4236694 -0.285516,-0.2855163 -0.46051,-0.7091857 -0.174994,-0.4236695 -0.174994,-0.9854919 0,-0.4605103 0.239465,-0.8657593 0.230255,-0.4144592 0.617084,-0.764447 0.386828,-0.359198 0.884179,-0.6447143 0.497351,-0.2855164 1.031543,-0.5065613 0.534192,-0.2302551 1.049964,-0.3776184 0.515771,-0.1565734 0.948651,-0.2302551 0.01842,-0.082892 0.0921,-0.1289428 0.08289,-0.055261 0.294726,-0.055261 0.07368,0 0.184204,0.00921 0.119733,0.00921 0.193415,0.00921 v 0.036841 q 0.248675,0.036841 0.423669,0.092102 0.174994,0.055261 0.331568,0.1197327 l 0.313147,0.1289428 q -0.0092,0.046051 -0.01842,0.082892 0,0.027631 0,0.073682 0,0.1473633 0.07368,0.2947266 -0.03684,0.027631 -0.07368,0.055261 -0.02763,0.01842 -0.05526,0.036841 0.0092,0.027631 0.0092,0.064471 0,0.036841 0,0.064471 z"
         id="path2975" />
      <path
         d="M 24.80388,8.7496837 Q 24.619676,8.6575817 24.509154,8.537849 24.398631,8.4273266 24.32495,8.2891735 q 0,0.00921 -0.0092,0.00921 0,0.00921 0,0.027631 Q 24.011803,7.8931347 23.790758,7.4878857 23.569713,7.0734265 23.403929,6.6958081 23.238145,6.3181897 23.099992,5.9866223 22.971049,5.655055 22.832896,5.3787488 q -0.08289,0.3223572 -0.138153,0.7091858 -0.04605,0.3868286 -0.08289,0.7828674 -0.03684,0.3960388 -0.07368,0.7736572 -0.02763,0.3776184 -0.06447,0.6815551 -0.110522,0.01842 -0.211834,0.01842 -0.0921,0.00921 -0.202625,0.00921 -0.110522,0 -0.193414,-0.01842 -0.08289,-0.00921 -0.156574,-0.027631 -0.07368,-0.00921 -0.156573,-0.027631 -0.07368,-0.00921 -0.184204,-0.00921 -0.04605,0 -0.101312,0.00921 -0.05526,0.00921 -0.101313,0.00921 -0.02763,0 -0.06447,-0.01842 0.02763,0.027631 0.02763,0.064471 Q 20.889543,8.2062817 20.631657,7.8562939 20.373772,7.4970959 20.125096,7.0273755 19.876421,6.557655 19.646166,6.0234631 19.425121,5.4892713 19.250127,5.0103406 19.075133,4.5221998 18.973821,4.1537916 18.863298,3.7761732 18.854088,3.6195997 q 0,-0.1749939 0.119733,-0.2578857 0.119732,-0.092102 0.294726,-0.1289429 0.165784,-0.036841 0.349988,-0.036841 0.193414,0 0.331567,0 0.119733,0 0.276306,0 0.165784,0 0.377619,0.01842 0.05526,0.1289429 0.128943,0.3315674 0.07368,0.2026245 0.147363,0.4144592 0.08289,0.2026245 0.147363,0.3776184 0.06447,0.1749939 0.101313,0.2486755 0.128942,-0.4144592 0.303936,-0.8197082 0.174994,-0.4144592 0.42367,-0.856549 0,-0.00921 0.0092,-0.027631 0.0092,-0.01842 0.0092,-0.027631 0.0092,-0.00921 0.01842,-0.027631 v 0.00921 q 0.05526,-0.1197326 0.147363,-0.2578857 0.0921,-0.1473633 0.248675,-0.1473633 0.257886,0 0.41446,-0.092102 l -0.0092,0.00921 q 0.147364,-0.082892 0.386829,-0.082892 0.08289,0 0.174994,0.01842 0.101312,0.00921 0.211835,0.027631 v 0.1197326 q 0.221044,0 0.313146,0.073682 0.101313,0.073682 0.156574,0.2486755 v -0.01842 q 0.202624,0.5894531 0.386829,1.1881164 0.184204,0.5894531 0.377618,1.1881164 0.202624,0.5986633 0.423669,1.1881164 0.230255,0.5894531 0.524982,1.169696 0.03684,0.027631 0.08289,0.1289429 0.04605,0.1013122 0.08289,0.2210449 0.03684,0.1105224 0.05526,0.2210449 0.02763,0.1105224 0.02763,0.1473633 0,0.055261 -0.05526,0.1565734 -0.05526,0.1013123 -0.156573,0.2026245 -0.101312,0.1013123 -0.239465,0.1749939 -0.138154,0.082892 -0.303937,0.082892 -0.08289,0 -0.128943,-0.064471 -0.02763,0.00921 -0.06447,0.00921 -0.02763,0.00921 -0.07368,0.00921 z"
         id="path2977" />
      <path
         d="m 28.580065,8.0036572 q -0.0092,-0.01842 -0.0092,-0.01842 z m -0.331568,0.1197326 q -0.524981,0.3868286 -0.755236,0.5710327 -0.221045,0.1842041 -0.221045,0.2302551 0,0.00921 0.0092,0.00921 0.05526,0 0.267096,-0.1013122 0.221045,-0.1013123 0.561822,-0.267096 -0.02763,0.00921 -0.07368,0.00921 -0.07368,0 -0.07368,-0.055261 0,-0.1105224 0.285516,-0.3960388 z M 26.55382,10.39831 q -0.368408,-0.06447 -0.515772,-0.239465 -0.138153,-0.1657836 -0.138153,-0.3960387 0,-0.1934143 0.101312,-0.4144593 0.110523,-0.2210449 0.257886,-0.4236694 0.156574,-0.1934143 0.313147,-0.359198 0.165784,-0.1565734 0.276306,-0.2394653 0.119733,-0.082892 0.294727,-0.1749939 0.174994,-0.1013122 0.349988,-0.1842041 0.184204,-0.082892 0.340777,-0.138153 0.165784,-0.055261 0.267096,-0.055261 0.05526,0 0.138153,0.036841 l -0.07368,-0.01842 q 0.0092,0 0.0092,0.00921 0.0092,0 0.01842,0 l 0.110523,0.055261 q -0.0092,-0.01842 -0.0092,-0.01842 0.05526,0.01842 0.110523,0.046051 l 0.03684,-0.00921 v 0.027631 q 0.03684,0.01842 0.07368,0.036841 0.03684,0.00921 0.06447,0.027631 l -0.0092,0.018421 -0.01842,-0.018421 q 0,0.018421 0.01842,0.018421 l -0.128943,0.1197326 v 0.1105225 q 0.07368,0 0.110522,-0.046051 0.03684,-0.055261 0.03684,-0.1105224 0,-0.036841 -0.0092,-0.055261 0.119732,0.1105224 0.119732,0.1842041 0,0.082892 -0.110522,0.1565734 -0.110523,0.073682 -0.184204,0.1105225 v 0.064471 q -0.165784,0.1013123 -0.340778,0.2302551 -0.165783,0.1289429 -0.239465,0.2855164 -0.01842,0.01842 -0.03684,0.055261 -0.01842,0.036841 -0.03684,0.055261 h 0.02763 q 1.160486,0.4420899 2.809112,0.4420899 0.221045,0 0.303937,0 0.08289,0 0.08289,-0.00921 0,-0.267096 -0.110522,-0.626294 Q 30.753673,8.6023205 30.587889,8.2339123 30.431316,7.8655041 30.256322,7.5155163 30.081328,7.1655285 29.952385,6.9076428 q -0.202624,0.1381531 -0.488141,0.2670959 -0.285516,0.1197327 -0.617083,0.2118347 -0.331568,0.082892 -0.681555,0.1381531 -0.349988,0.046051 -0.681556,0.046051 -0.580243,0 -1.086804,-0.092102 Q 25.899895,7.3773632 25.531487,7.1931591 25.163079,7.0089551 24.951244,6.7510693 24.739409,6.4839734 24.739409,6.152406 q 0,-0.3684082 0.174994,-0.7828674 v 0.00921 q 0.248676,-0.6355041 0.709186,-1.1512756 0.46972,-0.5249816 1.031543,-0.8933898 0.561822,-0.3776184 1.160486,-0.5802429 0.598663,-0.2118347 1.123645,-0.2118347 0.276306,0 0.561822,0.082892 0.285517,0.073682 0.524982,0.2302551 0.239465,0.1565735 0.405249,0.3960388 0.165784,0.2302551 0.211835,0.5341919 0.03684,0.2947266 0.04605,0.4789306 0.0092,0.1842041 0.03684,0.3499878 0.03684,0.1657837 0.110523,0.359198 0.07368,0.1934143 0.257886,0.5065613 0.221045,0.3960388 0.4513,0.8197082 0.230255,0.4236694 0.442089,0.8749694 0.211835,0.4420899 0.386829,0.9026001 0.174994,0.4605102 0.285516,0.9210205 0.0092,0.046051 0.0092,0.082892 0.0092,0.036841 0.0092,0.082892 0,0.2763061 -0.156574,0.5802428 -0.147363,0.3039372 -0.377618,0.5710332 -0.221045,0.267095 -0.497351,0.46051 -0.267096,0.193414 -0.506561,0.248675 -0.128943,0.02763 -0.285517,0.02763 -0.156573,0.0092 -0.313147,0.0092 -0.515771,0 -1.123645,-0.0921 -0.598663,-0.08289 -1.160485,-0.202624 -0.552613,-0.110523 -1.013123,-0.221045 -0.46051,-0.101313 -0.690765,-0.147364 z m 2.661749,-5.7840082 q -0.02763,0 -0.03684,-0.00921 0.0092,0.00921 0.03684,0.00921 z m -0.128943,0.027631 q 0,-0.00921 0,-0.00921 0.0092,0 0.0092,-0.00921 l 0.02763,-0.01842 z m 0.0921,-0.036841 q -0.01842,-0.00921 -0.02763,-0.00921 -0.0092,0 -0.01842,-0.00921 l 0.0092,-0.00921 q 0.0092,0.027631 0.03684,0.027631 z m -1.031543,1.6578369 q 0.294727,-0.1289429 0.478931,-0.2394654 0.184204,-0.1105224 0.285516,-0.2210449 0.101312,-0.1197326 0.138153,-0.2578857 0.03684,-0.1473633 0.03684,-0.3407776 0,-0.055261 -0.0092,-0.092102 -0.0092,-0.046051 -0.05526,-0.092102 0,0.01842 -0.08289,0.027631 -0.08289,0 -0.184204,0 0.340777,-0.4420898 0.377618,-0.4605102 -0.230255,-0.082892 -0.230255,-0.1842041 0,-0.046051 0.04605,-0.064471 0.05526,-0.027631 0.110522,-0.055261 0.06447,-0.027631 0.110523,-0.064471 0.05526,-0.036841 0.05526,-0.1105224 0,-0.1289429 -0.138153,-0.1934143 -0.128943,-0.073682 -0.230255,-0.073682 -0.184204,0 -0.42367,0.1013123 -0.230255,0.1013122 -0.48814,0.2763061 -0.248676,0.1749939 -0.488141,0.3960388 -0.239466,0.2210449 -0.43288,0.4605103 -0.193414,0.2302551 -0.313147,0.4697204 -0.110522,0.2302551 -0.110522,0.4236694 0,0.1105225 0.06447,0.1934143 0.07368,0.082892 0.193414,0.1381531 0.119733,0.046051 0.267096,0.073682 0.156574,0.027631 0.313147,0.027631 0.184204,0 0.368409,-0.027631 0.184204,-0.036841 0.340777,-0.1105224 z"
         id="path2979" />
      <path
         d="m 31.453647,7.9207653 q -0.03684,-0.01842 -0.07368,-0.082892 -0.03684,-0.064471 -0.08289,-0.1289429 -0.03684,-0.064471 -0.07368,-0.1197327 -0.03684,-0.055261 -0.06447,-0.064471 Q 31.029978,7.1102673 30.965506,6.7879101 30.901035,6.465553 30.882614,6.0787244 l -0.01842,-0.00921 0.05526,0.01842 q -0.02763,-0.00921 -0.08289,-0.027631 -0.05526,-0.027631 -0.101312,-0.046051 0,-0.405249 0.147363,-0.8473388 0.138153,-0.4420898 0.386829,-0.8657592 0.248675,-0.4236694 0.580243,-0.8012878 0.340777,-0.3868286 0.736816,-0.672345 0.396039,-0.2855163 0.819708,-0.4513 0.43288,-0.1749939 0.86576,-0.1749939 0.276306,0 0.736816,0.1289429 v 0.055261 q 0.4513,0.1289429 0.764447,0.4328796 0.313147,0.3039368 0.506561,0.718396 0.193415,0.405249 0.276306,0.8749694 0.0921,0.4697205 0.0921,0.9210205 0,0.4420898 -0.128942,0.7920776 -0.119733,0.3499878 -0.41446,0.4697204 v 0.064471 q -0.08289,0.01842 -0.221045,0.036841 -0.128942,0.00921 -0.267096,0.027631 -0.138153,0.01842 -0.257885,0.046051 -0.119733,0.01842 -0.165784,0.064471 -0.05526,0.046051 -0.156573,0.055261 -0.101313,0.00921 -0.239466,0.00921 -0.101312,-0.01842 -0.211834,-0.027631 -0.110523,-0.01842 -0.211835,-0.036841 h 0.0092 Q 33.968033,6.7602795 33.618045,6.7050183 33.268057,6.6497571 33.056223,6.603706 q 0.05526,0.3223572 0.276306,0.4789307 l -0.0092,-0.00921 q 0.257886,0.1842041 0.635505,0.2302551 0.386828,0.046051 0.736816,0.046051 0.552612,0 1.077594,-0.1197326 0.524982,-0.1289429 1.003912,-0.2210449 -0.07368,0.1289428 -0.101312,0.184204 -0.01842,0.046051 -0.02763,0.073682 h 0.202625 q -0.08289,0.1842041 -0.110523,0.2394653 -0.01842,0.055261 -0.01842,0.1197327 -0.285516,0.2394653 -0.589453,0.4144592 -0.303937,0.1657837 -0.681555,0.2670959 -0.368408,0.1105225 -0.838129,0.1565735 -0.46972,0.055261 -1.086804,0.055261 -0.340778,0 -0.598663,-0.036841 Q 32.678604,8.445747 32.448349,8.3720653 32.227304,8.3075939 31.997049,8.2062817 31.776004,8.0957592 31.499698,7.9576061 Z M 34.695639,5.4800611 34.520645,5.6458448 V 5.4708509 q 0.01842,0 0.03684,0.00921 0.01842,0 0.03684,0 z M 33.719357,5.2682264 q 0.239466,0.055261 0.42367,0.1105224 0.193414,0.046051 0.377618,0.092102 0,-0.5802429 -0.110522,-0.9578613 Q 34.30881,4.1353712 34.152237,3.9051161 v 0.00921 q -0.239465,-0.2947266 -0.506561,-0.2947266 -0.303937,0 -0.534192,0.3039368 -0.221045,0.3039367 -0.221045,0.7736572 0,0.073682 0.0092,0.1749939 0.0092,0.1013122 0.02763,0.2026245 0.184204,0.046051 0.377618,0.092102 0.193414,0.046051 0.414459,0.1013123 z"
         id="path2981" />
      <ellipse
         style="fill:#fb6400;fill-opacity:1;stroke-width:3;stroke-linecap:round"
         id="path3024"
         cx="4.9208474"
         cy="5.3123951"
         rx="1.8346295"
         ry="2.3098791" />
      <path
         style="fill:#6f4e37;fill-opacity:1;stroke:#6f4e37;stroke-width:0.0786741px;stroke-linecap:butt;stroke-linejoin:miter;stroke-opacity:1"
         d="m 4.7337042,2.3218086 0.01452,0.2553378 0.032671,-0.00751 -0.01452,-0.2515828 z"
         id="path3139" />
      <path
         style="fill:#3db83b;fill-opacity:1;stroke:#3db83b;stroke-width:0.457964px;stroke-linecap:butt;stroke-linejoin:miter;stroke-opacity:1"
         d="m 4.9053196,2.2271023 c 0,0 0.3090404,-0.4396784 0.6372859,-0.4659915 0.3282457,-0.026313 0.3638168,-0.00128 0.3638168,-0.00128 0,0 -0.038437,0.3864875 -0.2821423,0.4617917 -0.2437062,0.075303 -0.7189604,0.00548 -0.7189604,0.00548"
         id="path3452" />
    </g>
    <text
       xml:space="preserve"
       style="font-style:normal;font-variant:normal;font-weight:300;font-stretch:normal;font-size:4.39679px;line-height:1.25;font-family:Helvetica;-inkscape-font-specification:'Helvetica, Light';font-variant-ligatures:normal;font-variant-caps:normal;font-variant-numeric:normal;font-variant-east-asian:normal;fill:#58dec4;fill-opacity:1;stroke:none;stroke-width:0.10992"
       x="14.723961"
       y="17.442873"
       id="text33254"
       transform="scale(1.1054703,0.90459239)"><tspan
         sodipodi:role="line"
         id="tspan33252"
         style="font-style:normal;font-variant:normal;font-weight:300;font-stretch:normal;font-size:4.39679px;font-family:Helvetica;-inkscape-font-specification:'Helvetica, Light';font-variant-ligatures:normal;font-variant-caps:normal;font-variant-numeric:normal;font-variant-east-asian:normal;fill:#58dec4;fill-opacity:1;stroke-width:0.10992"
         x="14.723961"
         y="17.442873" /></text>
  </g>
</svg>
